HIERARCHY
ROOT Hips
{
    OFFSET 0.0 0.0 0.0
    CHANNELS 6 Xposition Yposition Zposition Zrotation Xrotation Yrotation
    JOINT LHipJoint
    {
        OFFSET 0.1 0.0 0.0
        CHANNELS 3 Zrotation Xrotation Yrotation
        JOINT LeftHip
        {
            OFFSET 0.1180810034275055 0.0 0.0
            CHANNELS 3 Zrotation Xrotation Yrotation
            JOINT LeftKnee
            {
                OFFSET 0.0 0.0 -0.315794438123703
                CHANNELS 3 Zrotation Xrotation Yrotation
                JOINT LeftAnkle
                {
                    OFFSET 0.0 0.0 -0.5970773696899414
                    CHANNELS 3 Zrotation Xrotation Yrotation
                    End Site
                    {
                        OFFSET 0.0 -0.1 0.0
                    }
                }
            }
        }
    }
    JOINT lowerback
    {
        OFFSET 0.0 0.0 0.1
        CHANNELS 3 Zrotation Xrotation Yrotation
        JOINT Chest
        {
            OFFSET 0.0 0.0 0.334291934967041
            CHANNELS 3 Zrotation Xrotation Yrotation
            JOINT Chest2
            {
                OFFSET 0.0 0.0 0.27294889092445374
                CHANNELS 3 Zrotation Xrotation Yrotation
                JOINT LeftCollar
                {
                    OFFSET 0.1 0.0 0.0
                    CHANNELS 3 Zrotation Xrotation Yrotation
                    JOINT LeftShoulder
                    {
                        OFFSET 0.1647394895553589 0.0 0.0
                        CHANNELS 3 Zrotation Xrotation Yrotation
                        JOINT LeftElbow
                        {
                            OFFSET 0.39550989866256714 0.0 0.0
                            CHANNELS 3 Zrotation Xrotation Yrotation
                            JOINT LeftWrist
                            {
                                OFFSET 0.24585005640983582 0.0 0.0
                                CHANNELS 3 Zrotation Xrotation Yrotation
                                End Site
                                {
                                    OFFSET 0.1 0.0 0.0
                                }
                            }
                        }
                    }
                }
                JOINT Neck
                {
                    OFFSET 0.0 0.0 0.1
                    CHANNELS 3 Zrotation Xrotation Yrotation
                    JOINT Head
                    {
                        OFFSET 0.0 0.0 0.28387686610221863
                        CHANNELS 3 Zrotation Xrotation Yrotation
                        End Site
                        {
                            OFFSET 0.0 0.0 0.17968223989009857
                        }
                    }
                }
                JOINT RightCollar
                {
                    OFFSET -0.1 0.0 0.0
                    CHANNELS 3 Zrotation Xrotation Yrotation
                    JOINT RightShoulder
                    {
                        OFFSET -0.1647394895553589 0.0 0.0
                        CHANNELS 3 Zrotation Xrotation Yrotation
                        JOINT RightElbow
                        {
                            OFFSET -0.39550989866256714 0.0 0.0
                            CHANNELS 3 Zrotation Xrotation Yrotation
                            JOINT RightWrist
                            {
                                OFFSET -0.24585005640983582 0.0 0.0
                                CHANNELS 3 Zrotation Xrotation Yrotation
                                End Site
                                {
                                    OFFSET -0.1 0.0 0.0
                                }
                            }
                        }
                    }
                }
            }
        }
    }
    JOINT RHipJoint
    {
        OFFSET -0.1 0.0 0.0
        CHANNELS 3 Zrotation Xrotation Yrotation
        JOINT RightHip
        {
            OFFSET -0.1180810034275055 0.0 0.0
            CHANNELS 3 Zrotation Xrotation Yrotation
            JOINT RightKnee
            {
                OFFSET 0.0 0.0 -0.315794438123703
                CHANNELS 3 Zrotation Xrotation Yrotation
                JOINT RightAnkle
                {
                    OFFSET 0.0 0.0 -0.5970773696899414
                    CHANNELS 3 Zrotation Xrotation Yrotation
                    End Site
                    {
                        OFFSET 0.0 -0.1 0.0
                    }
                }
            }
        }
    }
}
MOTION
Frames: 4
Frame Time: 0.06666666666666667
9.464438335271552e-06 0.18535974621772766 -8.89230432221666e-05 -6.9889210758949 -9.496200064711976 -28.708780580253507 7.951386703658791e-16 5.862219302097867e-33 8.448348372637465e-16 5.752182961643829 59.12243942306811 -16.94385476281286 16.859575546248404 -58.483061034342555 59.38283587695911 0.0 0.0 -3.975693351829397e-16 7.951386703658791e-16 5.862219302097867e-33 8.448348372637465e-16 0.3501920899507547 5.656996951085157 -8.221578631268951 7.30113603536194 7.058095691087949e-07 3.3124132664189017e-06 0.0 0.0 -1.838758175221096e-15 42.6359074390559 -62.40203840765134 -96.08046003723662 -90.81384599973806 4.120288956122614e-07 2.028814659591326e-06 6.3611093629270335e-15 -3.1805546814635168e-15 -4.770832022195275e-15 0.0 0.0 -1.838758175221096e-15 111.11505740781702 -70.71572499884196 114.75466772966544 0.0 0.0 -1.838758175221096e-15 8.395099698299743 -54.352872432129686 153.82862202398763 46.50857985572649 2.9989048068702104e-06 6.729797257360051e-06 3.1805546814635176e-15 -4.4139062980501586e-32 -1.5902773407317588e-15 7.951386703658791e-16 5.862219302097867e-33 8.448348372637465e-16 -1.0815002041962778 -19.012439392998576 64.70668514353743 29.229371362583908 10.910030521732505 -67.11801301084428 9.939233379573489e-17 1.4345734275584163e-34 1.6539505545696507e-16
1.1027081200154498e-05 0.18536213040351868 -8.953614451456815e-05 -6.67978982426304 -9.082420677172045 -28.614484769607277 0.0 0.0 1.341796506242421e-15 8.506787293256808 54.71501315755796 -8.526010055741054 -3.279470083242151 -58.166321004847816 29.9698862042497 0.0 0.0 0.0 0.0 0.0 1.341796506242421e-15 0.4634851106690099 4.334005012893925 -8.142992651378485 6.286445223046196 3.198052686063801e-07 -9.908411620539532e-07 -7.951386703658791e-16 -1.9878466759146975e-16 -3.4290355159528535e-15 53.43459246756527 -63.213222478384374 -90.00477350555825 -101.26567518141935 -1.814072398347916e-06 -3.178041272847332e-06 3.1805546814635176e-15 3.1805546814635176e-15 -8.827812596100317e-32 -7.951386703658791e-16 -1.9878466759146975e-16 -3.4290355159528535e-15 117.27374162797649 -74.6676823926939 121.26452723276284 -7.951386703658791e-16 -1.9878466759146975e-16 -3.4290355159528535e-15 -9.869484246560049 -67.25689718378351 138.58466625214348 51.05546450593595 5.745043589790373e-07 -2.4553797819279996e-06 0.0 0.0 0.0 0.0 0.0 1.341796506242421e-15 -2.4102994575560177 -22.625358651766614 65.27287340103685 34.68707381681926 10.541719884706964 -71.88373027644812 -1.4908850069360235e-16 -6.000962084293658e-34 4.612425490208322e-16
1.56997048179619e-05 0.18536195158958435 -8.802709635347128e-05 -5.796936546115818 -9.678504400336985 -28.919584475560757 3.975693351829395e-16 -5.172546443027529e-33 -1.4908850069360232e-15 10.406272358275793 51.606629989832854 -2.3320952415257277 -15.654831453173038 -54.1552166518384 6.703307613495582 7.951386703658792e-16 1.6896696745274934e-15 9.939233379573489e-17 3.975693351829395e-16 -5.172546443027529e-33 -1.4908850069360232e-15 0.6674050755673233 4.583173600594214 -6.836170437916363 5.81975767531893 2.6262524029458716e-07 1.6800228116804705e-06 -9.310583597449554e-32 -1.789062008323228e-15 -5.9635400277440935e-15 63.860334198418705 -63.127692113239284 -80.94989966240787 -111.58750360024959 1.0089052074004475e-06 4.4367926185166695e-06 0.0 0.0 -4.770832022195275e-15 -9.310583597449554e-32 -1.789062008323228e-15 -5.9635400277440935e-15 109.8314682842175 -75.44927684541365 116.84794202253009 -9.310583597449554e-32 -1.789062008323228e-15 -5.9635400277440935e-15 -41.65790987771301 -71.59948058505756 108.28710097342618 56.20271672858663 -5.008178316557798e-06 1.5363512712378706e-07 0.0 0.0 -6.3611093629270335e-15 3.975693351829395e-16 -5.172546443027529e-33 -1.4908850069360232e-15 -5.511560330496055 -34.07975375021403 65.34126591791185 48.77590856308006 11.117730943437396 -77.7668559468996 -1.627196901869077e-33 9.939233379573489e-17 1.8760303003944957e-15
2.099353150697425e-05 0.18536679446697235 -9.069975931197405e-05 -7.151595060625935 -10.286957540008476 -29.791967844024047 -1.5902773407317584e-15 2.896626008095417e-32 -2.087239009710433e-15 7.075464589545962 48.27851895374866 4.283841612663088 -14.088777795460826 -44.49530534081559 2.929464367523952 0.0 0.0 -4.969616689786746e-17 -1.5902773407317584e-15 2.896626008095417e-32 -2.087239009710433e-15 0.7797580265170809 6.907753009571494 -5.1591048313445675 3.7763994103683434 5.842167733506966e-07 1.8464276587911135e-06 2.370750453054284e-34 -9.93923337957349e-17 2.7332891793827095e-16 71.28063660254023 -63.72372715087305 -77.8327345490245 -112.38123375313819 1.3712365397103997e-06 3.6065379252237346e-07 6.3611093629270335e-15 9.54166404439055e-15 -6.3611093629270335e-15 2.370750453054284e-34 -9.93923337957349e-17 2.7332891793827095e-16 124.27151891773691 -78.28726412720393 131.24781855637215 2.370750453054284e-34 -9.93923337957349e-17 2.7332891793827095e-16 -65.4104643473034 -73.74777171369922 83.9018522396729 57.927741573690156 2.1804560701744996e-06 1.0445810029710613e-06 0.0 0.0 1.5902773407317584e-15 -1.5902773407317584e-15 2.896626008095417e-32 -2.087239009710433e-15 -7.181359928965507 -48.543310895428036 56.51283974836005 68.81533914083829 22.311978053464472 -85.7843025741321 9.89680552765934e-32 -1.3914926731402886e-15 8.150171371250262e-15
